<mxfile host="app.diagrams.net" agent="Mozilla/5.0 (Windows NT 10.0; Win64; x64) AppleWebKit/537.36 (KHTML, like Gecko) Chrome/127.0.0.0 Safari/537.36" version="24.7.6">
  <diagram name="第 1 页" id="ogaSOHbbW6t5F52_CFy1">
    <mxGraphModel dx="1066" dy="643" grid="1" gridSize="10" guides="1" tooltips="1" connect="1" arrows="1" fold="1" page="1" pageScale="1" pageWidth="827" pageHeight="1169" math="1" shadow="0">
      <root>
        <mxCell id="0" />
        <mxCell id="1" parent="0" />
        <mxCell id="Rme_OqWmLUPT7yd6KElW-11" value="" style="group;fontSize=16;fillColor=#dae8fc;strokeColor=#6c8ebf;" parent="1" vertex="1" connectable="0">
          <mxGeometry x="240" y="240" width="80" height="240" as="geometry" />
        </mxCell>
        <mxCell id="Rme_OqWmLUPT7yd6KElW-12" value="-1.2" style="rounded=0;whiteSpace=wrap;html=1;fontSize=16;fillColor=#dae8fc;strokeColor=#6c8ebf;" parent="Rme_OqWmLUPT7yd6KElW-11" vertex="1">
          <mxGeometry width="80" height="80" as="geometry" />
        </mxCell>
        <mxCell id="Rme_OqWmLUPT7yd6KElW-13" value="5.6" style="rounded=0;whiteSpace=wrap;html=1;fontSize=16;fillColor=#dae8fc;strokeColor=#6c8ebf;" parent="Rme_OqWmLUPT7yd6KElW-11" vertex="1">
          <mxGeometry y="80" width="80" height="80" as="geometry" />
        </mxCell>
        <mxCell id="Rme_OqWmLUPT7yd6KElW-14" value="2.3" style="rounded=0;whiteSpace=wrap;html=1;fontSize=16;fillColor=#dae8fc;strokeColor=#6c8ebf;" parent="Rme_OqWmLUPT7yd6KElW-11" vertex="1">
          <mxGeometry y="160" width="80" height="80" as="geometry" />
        </mxCell>
        <mxCell id="Rme_OqWmLUPT7yd6KElW-15" value="" style="group;fontSize=16;fillColor=#dae8fc;strokeColor=#6c8ebf;" parent="1" vertex="1" connectable="0">
          <mxGeometry x="240" y="560" width="80" height="240" as="geometry" />
        </mxCell>
        <mxCell id="Rme_OqWmLUPT7yd6KElW-16" value="-1.2" style="rounded=0;whiteSpace=wrap;html=1;fontSize=16;fillColor=#dae8fc;strokeColor=#6c8ebf;" parent="Rme_OqWmLUPT7yd6KElW-15" vertex="1">
          <mxGeometry width="80" height="80" as="geometry" />
        </mxCell>
        <mxCell id="Rme_OqWmLUPT7yd6KElW-17" value="5.6" style="rounded=0;whiteSpace=wrap;html=1;fontSize=16;fillColor=#dae8fc;strokeColor=#6c8ebf;" parent="Rme_OqWmLUPT7yd6KElW-15" vertex="1">
          <mxGeometry y="80" width="80" height="80" as="geometry" />
        </mxCell>
        <mxCell id="Rme_OqWmLUPT7yd6KElW-18" value="2.3" style="rounded=0;whiteSpace=wrap;html=1;fontSize=16;fillColor=#dae8fc;strokeColor=#6c8ebf;" parent="Rme_OqWmLUPT7yd6KElW-15" vertex="1">
          <mxGeometry y="160" width="80" height="80" as="geometry" />
        </mxCell>
        <mxCell id="Rme_OqWmLUPT7yd6KElW-19" value="" style="endArrow=classic;html=1;rounded=0;" parent="1" edge="1">
          <mxGeometry width="50" height="50" relative="1" as="geometry">
            <mxPoint x="360" y="360" as="sourcePoint" />
            <mxPoint x="520" y="360" as="targetPoint" />
          </mxGeometry>
        </mxCell>
        <mxCell id="Rme_OqWmLUPT7yd6KElW-20" value="" style="endArrow=classic;html=1;rounded=0;" parent="1" edge="1">
          <mxGeometry width="50" height="50" relative="1" as="geometry">
            <mxPoint x="360" y="679.5" as="sourcePoint" />
            <mxPoint x="520" y="680" as="targetPoint" />
          </mxGeometry>
        </mxCell>
        <mxCell id="Rme_OqWmLUPT7yd6KElW-22" value="\(\mathrm{max}\)" style="text;html=1;align=center;verticalAlign=middle;resizable=0;points=[];autosize=1;strokeColor=none;fillColor=none;fontSize=24;" parent="1" vertex="1">
          <mxGeometry x="340" y="320" width="200" height="40" as="geometry" />
        </mxCell>
        <mxCell id="Rme_OqWmLUPT7yd6KElW-23" value="\(\mathrm{Softmax}\)" style="text;html=1;align=center;verticalAlign=middle;resizable=0;points=[];autosize=1;strokeColor=none;fillColor=none;fontSize=24;" parent="1" vertex="1">
          <mxGeometry x="320" y="640" width="240" height="40" as="geometry" />
        </mxCell>
        <mxCell id="Rme_OqWmLUPT7yd6KElW-25" value="5.6" style="rounded=0;whiteSpace=wrap;html=1;fontSize=16;fillColor=#f8cecc;strokeColor=#b85450;" parent="1" vertex="1">
          <mxGeometry x="560" y="320" width="80" height="80" as="geometry" />
        </mxCell>
        <mxCell id="Rme_OqWmLUPT7yd6KElW-26" value="" style="group;fontSize=16;fillColor=#f8cecc;strokeColor=#b85450;" parent="1" vertex="1" connectable="0">
          <mxGeometry x="560" y="560" width="80" height="240" as="geometry" />
        </mxCell>
        <mxCell id="Rme_OqWmLUPT7yd6KElW-27" value="0.0011" style="rounded=0;whiteSpace=wrap;html=1;fontSize=16;fillColor=#fff2cc;strokeColor=#d6b656;" parent="Rme_OqWmLUPT7yd6KElW-26" vertex="1">
          <mxGeometry width="80" height="80" as="geometry" />
        </mxCell>
        <mxCell id="Rme_OqWmLUPT7yd6KElW-28" value="0.9634" style="rounded=0;whiteSpace=wrap;html=1;fontSize=16;fillColor=#f8cecc;strokeColor=#b85450;" parent="Rme_OqWmLUPT7yd6KElW-26" vertex="1">
          <mxGeometry y="80" width="80" height="80" as="geometry" />
        </mxCell>
        <mxCell id="Rme_OqWmLUPT7yd6KElW-29" value="0.0355" style="rounded=0;whiteSpace=wrap;html=1;fontSize=16;fillColor=#fff2cc;strokeColor=#d6b656;" parent="Rme_OqWmLUPT7yd6KElW-26" vertex="1">
          <mxGeometry y="160" width="80" height="80" as="geometry" />
        </mxCell>
        <mxCell id="Rme_OqWmLUPT7yd6KElW-32" value="&lt;font style=&quot;font-size: 16px;&quot;&gt;（和为1）&lt;/font&gt;" style="text;html=1;align=center;verticalAlign=middle;resizable=0;points=[];autosize=1;strokeColor=none;fillColor=none;" parent="1" vertex="1">
          <mxGeometry x="550" y="800" width="100" height="30" as="geometry" />
        </mxCell>
      </root>
    </mxGraphModel>
  </diagram>
</mxfile>
